<?xml version="1.0" encoding="utf-8"?>
<!-- Generator: Adobe Illustrator 23.0.5, SVG Export Plug-In . SVG Version: 6.00 Build 0)  -->
<!DOCTYPE svg PUBLIC "-//W3C//DTD SVG 1.1//EN" "http://www.w3.org/Graphics/SVG/1.1/DTD/svg11.dtd" [
	<!ENTITY ns_extend "http://ns.adobe.com/Extensibility/1.0/">
	<!ENTITY ns_ai "http://ns.adobe.com/AdobeIllustrator/10.0/">
	<!ENTITY ns_graphs "http://ns.adobe.com/Graphs/1.0/">
	<!ENTITY ns_vars "http://ns.adobe.com/Variables/1.0/">
	<!ENTITY ns_imrep "http://ns.adobe.com/ImageReplacement/1.0/">
	<!ENTITY ns_sfw "http://ns.adobe.com/SaveForWeb/1.0/">
	<!ENTITY ns_custom "http://ns.adobe.com/GenericCustomNamespace/1.0/">
	<!ENTITY ns_adobe_xpath "http://ns.adobe.com/XPath/1.0/">
]>
<svg version="1.1" id="Layer_1" xmlns:x="&ns_extend;" xmlns:i="&ns_ai;" xmlns:graph="&ns_graphs;"
	 xmlns="http://www.w3.org/2000/svg" xmlns:xlink="http://www.w3.org/1999/xlink" x="0px" y="0px" width="445px" height="334px"
	 viewBox="0 0 445 334" style="enable-background:new 0 0 445 334;" xml:space="preserve">
<style type="text/css">
	.st0{fill:#3E275B;}
	.st1{fill:url(#SVGID_1_);}
	.st2{fill:#58407C;}
	.st3{fill:#DFC6FF;}
	.st4{fill:#C5A6FF;}
	.st5{fill:#A48AE9;}
	.st6{fill:#E5D3FF;}
	.st7{fill:#FF5E4A;}
	.st8{fill:#6C40BF;}
	.st9{fill:#FFCD3D;}
	.st10{fill:#FF91A3;}
	.st11{fill:#FF7E93;}
	.st12{fill:#38123A;}
	.st13{fill:#8754CF;}
	.st14{fill:none;stroke:#341239;stroke-width:0.2246;stroke-miterlimit:10;}
	.st15{fill:#FDFDFE;}
	.st16{fill:none;stroke:#341239;stroke-width:0.2773;stroke-miterlimit:10;}
	.st17{fill:#FFCD3E;}
	.st18{fill:#FF493A;}
	.st19{fill:#F6F3FF;}
	.st20{fill:#5828B4;}
</style>
<metadata>
	<sfw  xmlns="&ns_sfw;">
		<slices></slices>
		<sliceSourceBounds  bottomLeftOrigin="true" height="322.6" width="420.4" x="12.5" y="5.4"></sliceSourceBounds>
	</sfw>
</metadata>
<g>
	<g>
		<g>
			<path class="st0" d="M424.8,308.8H74.3c-4.4,0-8-3.6-8-8V79.2c0-4.4,3.6-8,8-8h350.5c4.4,0,8,3.6,8,8v221.6
				C432.9,305.1,429.3,308.8,424.8,308.8z"/>
			<linearGradient id="SVGID_1_" gradientUnits="userSpaceOnUse" x1="88.0404" y1="189.9365" x2="422.0034" y2="189.9365">
				<stop  offset="0.38" style="stop-color:#ECE7FF"/>
				<stop  offset="1" style="stop-color:#FFFFFF"/>
			</linearGradient>
			<rect x="88" y="82" class="st1" width="334" height="215.9"/>
			<circle class="st2" cx="77.6" cy="189.9" r="5.4"/>
		</g>
		<g>
			<rect x="121.9" y="99.2" class="st3" width="282.8" height="54.5"/>
			<g>
				<g>
					
						<rect x="182.8" y="117.7" transform="matrix(-1 -1.224647e-16 1.224647e-16 -1 580.4877 237.2984)" class="st4" width="214.9" height="2"/>
					
						<rect x="236.1" y="106.8" transform="matrix(-1 -1.224647e-16 1.224647e-16 -1 633.7907 219.9279)" class="st4" width="161.6" height="6.3"/>
					
						<rect x="182.8" y="129.8" transform="matrix(-1 -1.224647e-16 1.224647e-16 -1 580.4877 261.6413)" class="st4" width="214.9" height="2"/>
					
						<rect x="182.8" y="123.7" transform="matrix(-1 -1.224647e-16 1.224647e-16 -1 580.4877 249.4699)" class="st4" width="214.9" height="2"/>
					
						<rect x="182.8" y="135.9" transform="matrix(-1 -1.224647e-16 1.224647e-16 -1 580.4877 273.8127)" class="st4" width="214.9" height="2"/>
					
						<rect x="182.8" y="142" transform="matrix(-1 -1.224647e-16 1.224647e-16 -1 580.4877 285.9843)" class="st4" width="214.9" height="2"/>
				</g>
				
					<rect x="128.9" y="106.7" transform="matrix(-1 -1.224647e-16 1.224647e-16 -1 302.9858 252.8846)" class="st4" width="45.2" height="39.5"/>
			</g>
			<g>
				<path class="st5" d="M185.5,106.9l0.9,1.5c0.1,0.1,0.2,0.2,0.3,0.2l1.9,0.2c0.3,0,0.4,0.4,0.2,0.6l-1.4,1.2
					c-0.1,0.1-0.1,0.2-0.1,0.3l0.4,1.7c0.1,0.3-0.3,0.5-0.5,0.4l-1.7-0.8c-0.1,0-0.2,0-0.3,0l-1.7,0.8c-0.3,0.1-0.6-0.1-0.5-0.3
					l0.3-1.7c0-0.1,0-0.2-0.1-0.3l-1.4-1.2c-0.2-0.2-0.1-0.5,0.2-0.6l1.9-0.3c0.1,0,0.2-0.1,0.3-0.2l0.8-1.5
					C184.9,106.7,185.3,106.7,185.5,106.9z"/>
				<path class="st5" d="M195.8,106.9l0.9,1.5c0.1,0.1,0.2,0.2,0.3,0.2l1.9,0.2c0.3,0,0.4,0.4,0.2,0.6l-1.4,1.2
					c-0.1,0.1-0.1,0.2-0.1,0.3l0.4,1.7c0.1,0.3-0.3,0.5-0.5,0.4l-1.7-0.8c-0.1,0-0.2,0-0.3,0l-1.7,0.8c-0.3,0.1-0.6-0.1-0.5-0.3
					l0.3-1.7c0-0.1,0-0.2-0.1-0.3l-1.4-1.2c-0.2-0.2-0.1-0.5,0.2-0.6l1.9-0.3c0.1,0,0.2-0.1,0.3-0.2l0.8-1.5
					C195.3,106.7,195.7,106.7,195.8,106.9z"/>
				<path class="st5" d="M206.2,106.9l0.9,1.5c0.1,0.1,0.2,0.2,0.3,0.2l1.9,0.2c0.3,0,0.4,0.4,0.2,0.6l-1.4,1.2
					c-0.1,0.1-0.1,0.2-0.1,0.3l0.4,1.7c0.1,0.3-0.3,0.5-0.5,0.4l-1.7-0.8c-0.1,0-0.2,0-0.3,0L204,113c-0.3,0.1-0.6-0.1-0.5-0.3
					l0.3-1.7c0-0.1,0-0.2-0.1-0.3l-1.4-1.2c-0.2-0.2-0.1-0.5,0.2-0.6l1.9-0.3c0.1,0,0.2-0.1,0.3-0.2l0.8-1.5
					C205.6,106.7,206,106.7,206.2,106.9z"/>
				<path class="st5" d="M216.5,106.9l0.9,1.5c0.1,0.1,0.2,0.2,0.3,0.2l1.9,0.2c0.3,0,0.4,0.4,0.2,0.6l-1.4,1.2
					c-0.1,0.1-0.1,0.2-0.1,0.3l0.4,1.7c0.1,0.3-0.3,0.5-0.5,0.4l-1.7-0.8c-0.1,0-0.2,0-0.3,0l-1.7,0.8c-0.3,0.1-0.6-0.1-0.5-0.3
					l0.3-1.7c0-0.1,0-0.2-0.1-0.3l-1.4-1.2c-0.2-0.2-0.1-0.5,0.2-0.6l1.9-0.3c0.1,0,0.2-0.1,0.3-0.2l0.8-1.5
					C216,106.7,216.4,106.7,216.5,106.9z"/>
				<path class="st5" d="M226.9,106.9l0.9,1.5c0.1,0.1,0.2,0.2,0.3,0.2l1.9,0.2c0.3,0,0.4,0.4,0.2,0.6l-1.4,1.2
					c-0.1,0.1-0.1,0.2-0.1,0.3l0.4,1.7c0.1,0.3-0.3,0.5-0.5,0.4l-1.7-0.8c-0.1,0-0.2,0-0.3,0l-1.7,0.8c-0.3,0.1-0.6-0.1-0.5-0.3
					l0.3-1.7c0-0.1,0-0.2-0.1-0.3l-1.4-1.2c-0.2-0.2-0.1-0.5,0.2-0.6l1.9-0.3c0.1,0,0.2-0.1,0.3-0.2l0.8-1.5
					C226.3,106.7,226.7,106.7,226.9,106.9z"/>
			</g>
		</g>
		<g>
			<rect x="121.9" y="166" class="st4" width="282.8" height="54.5"/>
			<g>
				<g>
					
						<rect x="182.8" y="184.5" transform="matrix(-1 -1.224647e-16 1.224647e-16 -1 580.4877 370.9841)" class="st5" width="214.9" height="2"/>
					
						<rect x="236.1" y="173.7" transform="matrix(-1 -1.224647e-16 1.224647e-16 -1 633.7907 353.6136)" class="st5" width="161.6" height="6.3"/>
					
						<rect x="182.8" y="196.7" transform="matrix(-1 -1.224647e-16 1.224647e-16 -1 580.4877 395.327)" class="st5" width="214.9" height="2"/>
					
						<rect x="182.8" y="190.6" transform="matrix(-1 -1.224647e-16 1.224647e-16 -1 580.4877 383.1556)" class="st5" width="214.9" height="2"/>
					
						<rect x="182.8" y="202.8" transform="matrix(-1 -1.224647e-16 1.224647e-16 -1 580.4877 407.4983)" class="st5" width="214.9" height="2"/>
					
						<rect x="182.8" y="208.8" transform="matrix(-1 -1.224647e-16 1.224647e-16 -1 580.4877 419.67)" class="st5" width="214.9" height="2"/>
				</g>
				
					<rect x="128.9" y="173.5" transform="matrix(-1 -1.224647e-16 1.224647e-16 -1 302.9858 386.5702)" class="st5" width="45.2" height="39.5"/>
			</g>
			<g>
				<path class="st5" d="M185.5,173.8l0.9,1.5c0.1,0.1,0.2,0.2,0.3,0.2l1.9,0.2c0.3,0,0.4,0.4,0.2,0.6l-1.4,1.2
					c-0.1,0.1-0.1,0.2-0.1,0.3l0.4,1.7c0.1,0.3-0.3,0.5-0.5,0.4l-1.7-0.8c-0.1,0-0.2,0-0.3,0l-1.7,0.8c-0.3,0.1-0.6-0.1-0.5-0.3
					l0.3-1.7c0-0.1,0-0.2-0.1-0.3l-1.4-1.2c-0.2-0.2-0.1-0.5,0.2-0.6l1.9-0.3c0.1,0,0.2-0.1,0.3-0.2l0.8-1.5
					C184.9,173.5,185.3,173.5,185.5,173.8z"/>
				<path class="st5" d="M195.8,173.8l0.9,1.5c0.1,0.1,0.2,0.2,0.3,0.2l1.9,0.2c0.3,0,0.4,0.4,0.2,0.6l-1.4,1.2
					c-0.1,0.1-0.1,0.2-0.1,0.3l0.4,1.7c0.1,0.3-0.3,0.5-0.5,0.4l-1.7-0.8c-0.1,0-0.2,0-0.3,0l-1.7,0.8c-0.3,0.1-0.6-0.1-0.5-0.3
					l0.3-1.7c0-0.1,0-0.2-0.1-0.3l-1.4-1.2c-0.2-0.2-0.1-0.5,0.2-0.6l1.9-0.3c0.1,0,0.2-0.1,0.3-0.2l0.8-1.5
					C195.3,173.5,195.7,173.5,195.8,173.8z"/>
				<path class="st5" d="M206.2,173.8l0.9,1.5c0.1,0.1,0.2,0.2,0.3,0.2l1.9,0.2c0.3,0,0.4,0.4,0.2,0.6l-1.4,1.2
					c-0.1,0.1-0.1,0.2-0.1,0.3l0.4,1.7c0.1,0.3-0.3,0.5-0.5,0.4l-1.7-0.8c-0.1,0-0.2,0-0.3,0l-1.7,0.8c-0.3,0.1-0.6-0.1-0.5-0.3
					l0.3-1.7c0-0.1,0-0.2-0.1-0.3l-1.4-1.2c-0.2-0.2-0.1-0.5,0.2-0.6l1.9-0.3c0.1,0,0.2-0.1,0.3-0.2l0.8-1.5
					C205.6,173.5,206,173.5,206.2,173.8z"/>
				<path class="st5" d="M216.5,173.8l0.9,1.5c0.1,0.1,0.2,0.2,0.3,0.2l1.9,0.2c0.3,0,0.4,0.4,0.2,0.6l-1.4,1.2
					c-0.1,0.1-0.1,0.2-0.1,0.3l0.4,1.7c0.1,0.3-0.3,0.5-0.5,0.4l-1.7-0.8c-0.1,0-0.2,0-0.3,0l-1.7,0.8c-0.3,0.1-0.6-0.1-0.5-0.3
					l0.3-1.7c0-0.1,0-0.2-0.1-0.3l-1.4-1.2c-0.2-0.2-0.1-0.5,0.2-0.6l1.9-0.3c0.1,0,0.2-0.1,0.3-0.2l0.8-1.5
					C216,173.5,216.4,173.5,216.5,173.8z"/>
				<path class="st5" d="M226.9,173.8l0.9,1.5c0.1,0.1,0.2,0.2,0.3,0.2l1.9,0.2c0.3,0,0.4,0.4,0.2,0.6l-1.4,1.2
					c-0.1,0.1-0.1,0.2-0.1,0.3l0.4,1.7c0.1,0.3-0.3,0.5-0.5,0.4l-1.7-0.8c-0.1,0-0.2,0-0.3,0l-1.7,0.8c-0.3,0.1-0.6-0.1-0.5-0.3
					l0.3-1.7c0-0.1,0-0.2-0.1-0.3l-1.4-1.2c-0.2-0.2-0.1-0.5,0.2-0.6l1.9-0.3c0.1,0,0.2-0.1,0.3-0.2l0.8-1.5
					C226.3,173.5,226.7,173.5,226.9,173.8z"/>
			</g>
		</g>
		<g>
			<rect x="121.9" y="232.9" class="st6" width="282.8" height="54.5"/>
			<g>
				<g>
					
						<rect x="182.8" y="251.3" transform="matrix(-1 -1.224647e-16 1.224647e-16 -1 580.4877 504.6698)" class="st4" width="214.9" height="2"/>
					
						<rect x="236.1" y="240.5" transform="matrix(-1 -1.224647e-16 1.224647e-16 -1 633.7907 487.2993)" class="st4" width="161.6" height="6.3"/>
					
						<rect x="182.8" y="263.5" transform="matrix(-1 -1.224647e-16 1.224647e-16 -1 580.4877 529.0127)" class="st4" width="214.9" height="2"/>
					
						<rect x="182.8" y="257.4" transform="matrix(-1 -1.224647e-16 1.224647e-16 -1 580.4877 516.8412)" class="st4" width="214.9" height="2"/>
					
						<rect x="182.8" y="269.6" transform="matrix(-1 -1.224647e-16 1.224647e-16 -1 580.4877 541.1841)" class="st4" width="214.9" height="2"/>
					
						<rect x="182.8" y="275.7" transform="matrix(-1 -1.224647e-16 1.224647e-16 -1 580.4877 553.3557)" class="st4" width="214.9" height="2"/>
				</g>
				
					<rect x="128.9" y="240.4" transform="matrix(-1 -1.224647e-16 1.224647e-16 -1 302.9858 520.2559)" class="st4" width="45.2" height="39.5"/>
			</g>
			<g>
				<path class="st5" d="M185.5,240.6l0.9,1.5c0.1,0.1,0.2,0.2,0.3,0.2l1.9,0.2c0.3,0,0.4,0.4,0.2,0.6l-1.4,1.2
					c-0.1,0.1-0.1,0.2-0.1,0.3l0.4,1.7c0.1,0.3-0.3,0.5-0.5,0.4l-1.7-0.8c-0.1,0-0.2,0-0.3,0l-1.7,0.8c-0.3,0.1-0.6-0.1-0.5-0.3
					l0.3-1.7c0-0.1,0-0.2-0.1-0.3l-1.4-1.2c-0.2-0.2-0.1-0.5,0.2-0.6l1.9-0.3c0.1,0,0.2-0.1,0.3-0.2l0.8-1.5
					C184.9,240.4,185.3,240.4,185.5,240.6z"/>
				<path class="st5" d="M195.8,240.6l0.9,1.5c0.1,0.1,0.2,0.2,0.3,0.2l1.9,0.2c0.3,0,0.4,0.4,0.2,0.6l-1.4,1.2
					c-0.1,0.1-0.1,0.2-0.1,0.3l0.4,1.7c0.1,0.3-0.3,0.5-0.5,0.4l-1.7-0.8c-0.1,0-0.2,0-0.3,0l-1.7,0.8c-0.3,0.1-0.6-0.1-0.5-0.3
					l0.3-1.7c0-0.1,0-0.2-0.1-0.3l-1.4-1.2c-0.2-0.2-0.1-0.5,0.2-0.6l1.9-0.3c0.1,0,0.2-0.1,0.3-0.2l0.8-1.5
					C195.3,240.4,195.7,240.4,195.8,240.6z"/>
				<path class="st5" d="M206.2,240.6l0.9,1.5c0.1,0.1,0.2,0.2,0.3,0.2l1.9,0.2c0.3,0,0.4,0.4,0.2,0.6l-1.4,1.2
					c-0.1,0.1-0.1,0.2-0.1,0.3l0.4,1.7c0.1,0.3-0.3,0.5-0.5,0.4l-1.7-0.8c-0.1,0-0.2,0-0.3,0l-1.7,0.8c-0.3,0.1-0.6-0.1-0.5-0.3
					l0.3-1.7c0-0.1,0-0.2-0.1-0.3l-1.4-1.2c-0.2-0.2-0.1-0.5,0.2-0.6l1.9-0.3c0.1,0,0.2-0.1,0.3-0.2l0.8-1.5
					C205.6,240.4,206,240.4,206.2,240.6z"/>
				<path class="st5" d="M216.5,240.6l0.9,1.5c0.1,0.1,0.2,0.2,0.3,0.2l1.9,0.2c0.3,0,0.4,0.4,0.2,0.6l-1.4,1.2
					c-0.1,0.1-0.1,0.2-0.1,0.3l0.4,1.7c0.1,0.3-0.3,0.5-0.5,0.4l-1.7-0.8c-0.1,0-0.2,0-0.3,0l-1.7,0.8c-0.3,0.1-0.6-0.1-0.5-0.3
					l0.3-1.7c0-0.1,0-0.2-0.1-0.3l-1.4-1.2c-0.2-0.2-0.1-0.5,0.2-0.6l1.9-0.3c0.1,0,0.2-0.1,0.3-0.2l0.8-1.5
					C216,240.4,216.4,240.4,216.5,240.6z"/>
				<path class="st5" d="M226.9,240.6l0.9,1.5c0.1,0.1,0.2,0.2,0.3,0.2l1.9,0.2c0.3,0,0.4,0.4,0.2,0.6l-1.4,1.2
					c-0.1,0.1-0.1,0.2-0.1,0.3l0.4,1.7c0.1,0.3-0.3,0.5-0.5,0.4l-1.7-0.8c-0.1,0-0.2,0-0.3,0l-1.7,0.8c-0.3,0.1-0.6-0.1-0.5-0.3
					l0.3-1.7c0-0.1,0-0.2-0.1-0.3l-1.4-1.2c-0.2-0.2-0.1-0.5,0.2-0.6l1.9-0.3c0.1,0,0.2-0.1,0.3-0.2l0.8-1.5
					C226.3,240.4,226.7,240.4,226.9,240.6z"/>
			</g>
		</g>
	</g>
	<g>
		<g>
			<path class="st7" d="M411.5,17.3c0.1-0.8-0.2-1.5-0.7-2.1c-1.7-2-4.9-2-6.6,0c-0.5,0.6-0.8,1.3-0.7,2.1c-4.4,3.8-1.8,14.4,4,14.5
				v0c0,0,0,0,0,0c0,0,0,0,0,0v0C413.3,31.7,416,21.1,411.5,17.3z"/>
			<path class="st8" d="M415.6,62.1c-0.1-0.5-0.2-1-0.2-1.4l-27.1-0.8c-8.2,0,4.7,26.3,7.9,32.7c0,0-0.6,7.5,1.2,6.8
				c3.1-1.2,3.2-9.8,1.5-13.5c-1.2-5.7-2.2-10.9-3.4-15.2c3,0.7,6.5,0.9,9.7,0.9C413.4,71.6,416.6,68.1,415.6,62.1z"/>
			<path class="st9" d="M417.8,43.4c2.3-4.2-3-7.4-5.3-8.6c-1.4-0.8-2.9-1.1-4.5-1.1l0,0h-1c-1.6,0-3.1,0.4-4.5,1.1
				c-2.3,1.3-7.6,4.5-5.3,8.6c2.4,4.3,2.6,12.3,1.8,17.4h16.3C414.6,55.9,414.9,48.5,417.8,43.4z"/>
			<g>
				<path class="st10" d="M391.6,44.1c-5.4,8.4,1.1,11.2,8.2,14.7c0.4-1.9,0.2-1.7,0.2-1.7s-4.6-4.8-6.1-7.6c0,0,1.2-1.1,2.9-2.7
					l-3.9-4.6C392.5,42.9,392,43.5,391.6,44.1z"/>
				<path class="st9" d="M406,33.2c0,0-7.7,2.2-13.1,9.2l3.9,4.6C400.4,43.5,406,37.3,406,33.2z"/>
				<path class="st10" d="M424.5,48.5c-0.6-1.7-1.4-3.1-2.3-4.5l-4.3,4.9c1.7,2.6,3.1,4.5,3.1,4.5c-1.5,2.5-7.5,6.1-7.5,6.1
					s-0.1-0.2-0.1,1.7C421.1,59.3,428,57.9,424.5,48.5z"/>
				<path class="st9" d="M412.6,34.9c-0.8,3.6,2.6,9.8,5.3,14l4.3-4.9C418.2,37.8,412.6,34.9,412.6,34.9z"/>
			</g>
			<path class="st11" d="M407.5,36.9L407.5,36.9c1.5,0,2.8-1.3,2.8-2.8v-4.7h-5.6v4.7C404.7,35.6,405.9,36.9,407.5,36.9z"/>
			<g>
				<g>
					<path class="st11" d="M403,25.1c0,0-1.5-0.2-1.5,1.4s2,1.7,2,1.7L403,25.1z"/>
					<path class="st11" d="M412,25.1c0,0,1.5-0.2,1.5,1.4s-2,1.7-2,1.7L412,25.1z"/>
				</g>
			</g>
			<path class="st10" d="M407.5,32.2L407.5,32.2c2.5,0,4.6-2.1,4.6-4.6v-2.5c0-2.5-2.1-4.6-4.6-4.6l0,0c-2.5,0-4.6,2.1-4.6,4.6v2.5
				C402.9,30.1,405,32.2,407.5,32.2z"/>
			<rect x="392" y="47.9" class="st12" width="21.8" height="13.5"/>
			<path class="st13" d="M415.6,62.1c-2.9-1.6-9.2-2.3-13.4-2.5c-1.8-0.1-3.5,0.8-4.4,2.4c-4.2,7.7-6,30-6,30s-4.4,6.3-2.4,6.5
				c3.3,0.3,7.9-7.2,8.4-11.2c2.1-5.9,4-11.3,5.2-15.7C412.4,73.2,416.5,70.2,415.6,62.1z"/>
			<path class="st7" d="M402.1,25.2c0,0,4.2,0.5,7.9-4c0.2,2.3,1.3,3.8,2.6,3.8c1.3,0-0.6-4.9-5.1-4.9S401,25.2,402.1,25.2z"/>
			<path class="st0" d="M390.8,93.7c0,0-0.8,1.3,0,1.9c2.1,1.7,4.3-5.9,5.9-4.8c-2.4,5.9-5.5,7.8-7.2,7.8
				C387.9,98.6,388.5,96.8,390.8,93.7z"/>
			<path class="st0" d="M396.1,94.7c0,0-0.1,1.5,0.9,1.7c2.7,0.5,0.8-7.2,2.8-7.1c0.8,6.4-0.9,9.5-2.4,10.3
				C396,100.4,395.6,98.5,396.1,94.7z"/>
			<path class="st14" d="M400.1,35.9c0,0,0.6,6.4,7.4,6.4s7-6.4,7-6.4"/>
			<path class="st14" d="M402,34.9c0,0,0.5,4.6,5.5,4.6s5.6-4.4,5.6-4.4"/>
		</g>
		<g>
			<g>
				<polygon class="st10" points="93,264.2 89.1,325.8 93.1,325.8 103.4,274.2 109.5,325.8 113.2,325.8 113.4,264.2 				"/>
			</g>
			<path class="st13" d="M114.5,325.8c0,0,2.7-0.4,5.4,2.8c-7.8,0-10.3,0-10.3,0l-0.1-2.8H114.5z"/>
			<path class="st13" d="M88.1,325.8c0,0-2.7-0.4-5.4,2.8c7.8,0,10.3,0,10.3,0l0.1-2.8H88.1z"/>
			<path class="st9" d="M108.6,167.2l4.1,10.6c0.3,0.7,0.8,1.2,1.5,1.3l11.1,2.6c1.8,0.4,2.3,2.7,0.9,3.8l-8.8,7.2
				c-0.6,0.5-0.9,1.2-0.8,1.9l0.9,11.4c0.1,1.8-1.8,3-3.4,2l-9.6-6.2c-0.6-0.4-1.4-0.5-2-0.2L92,206.1c-1.7,0.7-3.4-0.8-3-2.6
				l2.9-11c0.2-0.7,0-1.4-0.5-2l-7.4-8.7c-1.2-1.4-0.3-3.5,1.5-3.6l11.4-0.6c0.7,0,1.4-0.4,1.7-1l5.9-9.7
				C105.6,165.3,107.9,165.5,108.6,167.2z"/>
			<path class="st10" d="M90.9,207.9c0,0,0.8-4.2,0.1-4.6c-0.6-0.4-0.9,2.6-0.9,2.6s-0.6-2.7-0.7-4.1c-0.1-1.4-1.8-1.2-2.2,1.5
				c-0.4,2.6,1.5,5.1,1.5,5.1L90.9,207.9z"/>
			<path class="st10" d="M115.7,207.7c0,0-0.8-3.9,0-4.4c0.6-0.4,0.9,2.6,0.9,2.6s0.6-2.7,0.7-4.1c0.1-1.4,1.8-1.2,2.2,1.5
				s-1.5,5.1-1.5,5.1L115.7,207.7z"/>
			<g>
				<path class="st10" d="M98.8,233.4l-11.7-8.8l3.9-16.9h-2.4c0,0-6.9,8.8-6.9,17.4c0,7.1,13.7,15,13.7,15L98.8,233.4z"/>
				<path class="st10" d="M107.7,233.8l12.4-10l-4.5-16.1h2.4c0,0,7,8.6,7,17.2c0,6.6-13.8,15.2-13.8,15.2L107.7,233.8z"/>
			</g>
			<path class="st13" d="M100.2,231.9c0,0-1.1-2-6.1-2c-3.4,3.4-2.8,7.5-2.8,7.5s1.1,2.5,3.2,3.2
				C97.8,239.1,100.2,231.9,100.2,231.9z"/>
			<path class="st13" d="M106.5,231.9c0,0,1.1-2,6.1-2c3.4,3.4,2.8,7.5,2.8,7.5s-1.1,2.5-3.2,3.2
				C108.9,239.1,106.5,231.9,106.5,231.9z"/>
			<path class="st13" d="M102.9,231.5c0,0-7.1-0.5-8.4,7.5c-1.5,9.6,4,10.7-1.5,25.1c19.9,0,20.4,0,20.4,0s-4.5-5.3-0.9-17.2
				C116.1,234.9,108.6,231.5,102.9,231.5z"/>
			<path class="st11" d="M103.4,235.7L103.4,235.7c-1.7,0-3.2-1.4-3.2-3.2v-5.3h6.3v5.3C106.5,234.3,105.1,235.7,103.4,235.7z"/>
			<path class="st7" d="M103.5,213.2L103.5,213.2C103.5,213.2,103.5,213.2,103.5,213.2C103.5,213.2,103.4,213.2,103.5,213.2
				L103.5,213.2c-0.7,0-8.7,0.4-8.7,11.9c0,12,3.1,19.9,5.6,19.9c0-11.5,0-21.7,0-21.7l3.1-3.1l3.1,3.1c0,0,0,10.1,0,21.7
				c2.5,0,5.6-7.9,5.6-19.9C112.1,213.6,104.1,213.2,103.5,213.2z"/>
			<g>
				<path class="st10" d="M98.3,221.3c0,0-1.7-0.2-1.7,1.6c0,1.8,2.2,1.9,2.2,1.9L98.3,221.3z"/>
				<path class="st10" d="M108.4,221.3c0,0,1.7-0.2,1.7,1.6c0,1.8-2.2,1.9-2.2,1.9L108.4,221.3z"/>
			</g>
			<path class="st10" d="M103.4,229.6L103.4,229.6c-2.8,0-5.1-2.3-5.1-5.1v-4.1c0-2.8,2.3-5.1,5.1-5.1l0,0c2.8,0,5.1,2.3,5.1,5.1
				v4.1C108.5,227.3,106.2,229.6,103.4,229.6z"/>
			<path class="st15" d="M94.9,257.4c0,0-10.9,15.7-8.9,42.3c10.2,3.5,21.7,3.8,32.7,0c2.3-27.8-7.5-42.3-7.5-42.3
				S103.8,260,94.9,257.4z"/>
			<path class="st7" d="M98.2,221.3c0,0,5.5-0.3,9.5-5.3C101.8,211.8,97,216.5,98.2,221.3z"/>
			<path class="st16" d="M95.3,256.1c0,0,8.5,1.8,15.8,0"/>
		</g>
		<g>
			<path class="st11" d="M35.3,229.8c0,0,5.5,0.2,11.6,14.2l7.5-9.3h3.1c0,0-7.3,14.6-11.1,14.6S34.9,240.4,35.3,229.8z"/>
			<path class="st12" d="M17.6,325.8c0,0-2.5-0.4-5.1,2.8c7.3,0,9.7,0,9.7,0l0.1-2.8H17.6z"/>
			<path class="st12" d="M42.6,325.8c0,0,2.5-0.4,5.1,2.8c-7.3,0-9.7,0-9.7,0l-0.1-2.8H42.6z"/>
			<polygon class="st10" points="20.1,264.2 18.3,325.8 22.3,325.8 30.4,272.5 37.9,325.8 41.6,325.8 40.7,264.2 			"/>
			<g>
				<path class="st11" d="M20.1,264.2h20.6c0,0-3.8-6-2.7-13.6c-6.4,1.8-12.7,0.5-15.1-0.1C23.2,256,20.1,264.2,20.1,264.2z"/>
				<path class="st15" d="M38,250.6c0.1-0.6,0.2-1.2,0.3-1.7c3.9-14,0.8-20.3-9.5-20.3c-10.4,0-7.7,14.5-6.2,19.9
					c0.2,0.6,0.3,1.3,0.3,2C25.2,251.1,31.6,252.4,38,250.6z"/>
			</g>
			<path class="st9" d="M56.3,199.5l2.9,11c0.2,0.7,0.7,1.3,1.4,1.5l10.8,3.8c1.7,0.6,2,2.9,0.5,3.9l-9.6,6.2c-0.6,0.4-1,1.1-1,1.8
				L61,239.1c0,1.8-2.2,2.8-3.6,1.6l-8.9-7.2c-0.6-0.5-1.3-0.6-2-0.4l-10.9,3.2c-1.7,0.5-3.3-1.2-2.7-2.9l4.1-10.7
				c0.3-0.7,0.2-1.4-0.2-2l-6.5-9.4c-1-1.5,0.1-3.5,1.9-3.4l11.4,0.6c0.7,0,1.4-0.3,1.8-0.8l7-9C53.6,197.2,55.9,197.7,56.3,199.5z"
				/>
			<path class="st12" d="M29.8,212.3c0,0-3.8-0.7-5.9,4.3c-1.6,4.3,0.6,5.2-3.5,7.2c3.6,3.1,10.6,4.3,15.2,1.4
				C40.3,222.3,38.1,212.3,29.8,212.3z"/>
			<path class="st10" d="M42.4,235.3c0,0,1.6-3.8,2.4-3.8c0.6,0-0.6,2.3-0.6,2.3s1.7-1.7,2.5-2.6c0.8-0.9,1.9,0,0.9,2.2
				s-3.5,3.1-3.5,3.1L42.4,235.3z"/>
			<path class="st11" d="M30.9,231.8L30.9,231.8c-1.6,0-2.8-1.3-2.8-2.8v-4.7h5.6v4.7C33.8,230.6,32.5,231.8,30.9,231.8z"/>
			<path class="st10" d="M27.3,231.5c1.6,2.3,6.6,11.3,6.6,11.3l8.8-8.1l3.1,0.4c0,0-9.4,13.7-13.2,13.7c-1.7,0-10.2-6.1-9.6-16.1
				C23.1,229.9,25.7,229.1,27.3,231.5z"/>
			<g>
				<path class="st10" d="M26.4,219c0,0-1.5-0.2-1.5,1.4s1.9,1.7,1.9,1.7L26.4,219z"/>
				<path class="st10" d="M35.5,219c0,0,1.5-0.2,1.5,1.4s-1.9,1.7-1.9,1.7L35.5,219z"/>
			</g>
			<path class="st10" d="M30.9,226.4L30.9,226.4c-2.5,0-4.6-2.1-4.6-4.6v-3.6c0-2.5,2.1-4.6,4.6-4.6l0,0c2.5,0,4.6,2.1,4.6,4.6v3.6
				C35.5,224.3,33.5,226.4,30.9,226.4z"/>
			<path class="st7" d="M38.3,258.2c-5.8,1.7-9.7,1.7-16.4,0c0,0-4.5,7.9-4.5,24.4c0,8.4,1.7,15.8,1.7,15.8s2.6,2.2,7.4,0
				c2.4-7.3,3.9-25.9,3.9-25.9s1.2,18.6,3.6,25.9c4.8,2.2,7.2,0,7.2,0s2.2-7.5,2.2-15.8C43.4,266,38.3,258.2,38.3,258.2z"/>
			<path class="st12" d="M25.9,217.8c0,0,4.9,1.4,8.1-4C28.1,210.7,25.5,215.3,25.9,217.8z"/>
		</g>
		<g>
			<path class="st12" d="M286.4,199.9c0,0-7.6-1-9,8.1c-1.4,9.1,5.1,10.9-4.2,20.6c-9.3,9.7-7,20.7,11.1,20.3
				c18.1-0.4,19.2-8,18.1-13.2c-1.1-5.2-5.8-5.2-3.4-12c2.4-6.8-1.3-8.7-2.8-13.3C294.6,205.6,291.5,199.9,286.4,199.9z"/>
			<path class="st10" d="M281.7,219.5c0,0-6.1,0.2-12.8,15.6l-8.3-10.2h-3.4c0,0,8,17.1,12.3,17.1
				C273.7,241.9,283.8,234.9,281.7,219.5z"/>
			<path class="st12" d="M304.7,325.5c0,0,2.8-0.4,5.6,3.1c-8.1,0-10.7,0-10.7,0l-0.1-3.1H304.7z"/>
			<path class="st12" d="M272.5,325.5c0,0-2.8-0.4-5.6,3.1c8.1,0,10.7,0,10.7,0l0.1-3.1H272.5z"/>
			<g>
				<path class="st10" d="M290.3,207.4c0,0,1.6-0.2,1.6,1.6c0,1.7-2.1,1.9-2.1,1.9L290.3,207.4z"/>
				<path class="st10" d="M280.4,207.4c0,0-1.6-0.2-1.6,1.6c0,1.7,2.1,1.9,2.1,1.9L280.4,207.4z"/>
			</g>
			<path class="st11" d="M285.3,221.7L285.3,221.7c1.7,0,3.1-1.4,3.1-3.1v-5.2h-6.2v5.2C282.2,220.3,283.6,221.7,285.3,221.7z"/>
			<path class="st10" d="M285.3,215.7L285.3,215.7c2.8,0,5.1-2.3,5.1-5.1v-4c0-2.8-2.3-5.1-5.1-5.1l0,0c-2.8,0-5.1,2.3-5.1,5.1v4
				C280.3,213.4,282.6,215.7,285.3,215.7z"/>
			<polygon class="st10" points="297.3,257.4 303.9,325.5 299.5,325.5 285.9,266.6 277.7,325.5 273.6,325.5 274.6,257.4 			"/>
			<path class="st11" d="M296.1,249.9c-0.8-2.9-1-5.9-0.6-8.9c1.3-8.5,1.6-23-7.7-23c-10,0-13.5,8.8-11.4,21.3
				c0.6,3.4,0.5,6.9-0.5,10.2c-0.1,0.2-0.1,0.4-0.2,0.6c-1.2,4.1-1.2,7.3-1.2,7.3h22.7C297.3,257.4,297.3,254.3,296.1,249.9z"/>
			<path class="st17" d="M275.7,250.1c0,0-3.4,6.8-1.3,19.9c6.9,1.7,11,0.6,11,0.6l0.6-4l0.9,3.9c0,0,5.5,2,11.7-0.6
				c0.7-11.6-2.2-19.1-2.2-19.1S284,254.1,275.7,250.1z"/>
			<path class="st15" d="M277.2,229.2l-4.1-2.2c0,0,1.1-3.6,3.2-4.2c2.1,0.4,2.1,0.4,2.1,0.4L277.2,229.2z"/>
			<path class="st15" d="M278,223.1c0,0,6.5,2.3,16.3-0.9c4.3,7.8-0.5,27.3,6.7,40.1c0,0-15.4,4.1-29.2,0
				C279.8,244,271.8,233.2,278,223.1z"/>
			<path class="st9" d="M256.7,206.8l-1.9,12.5c-0.1,0.8-0.6,1.5-1.3,1.8l-11.3,5.5c-1.8,0.9-1.8,3.4,0,4.3l11.3,5.6
				c0.7,0.4,1.2,1,1.3,1.8l1.7,12.5c0.3,2,2.7,2.8,4.1,1.4l8.9-9c0.6-0.6,1.4-0.8,2.1-0.7l12.4,2.2c2,0.3,3.5-1.7,2.6-3.5l-5.8-11.2
				c-0.4-0.7-0.4-1.5,0-2.2l5.9-11.1c0.9-1.8-0.6-3.8-2.5-3.5l-12.4,2.1c-0.8,0.1-1.6-0.1-2.1-0.7l-8.8-9.1
				C259.4,204,257,204.8,256.7,206.8z"/>
			<path class="st10" d="M265.9,238.5c0,0-4.5,1-4.6,1.8c-0.1,0.7,2.6-0.2,2.6-0.2s-2.2,1.6-3.3,2.2c-1.2,0.6-0.3,2.1,2.2,1.4
				c2.5-0.6,4-3.3,4-3.3L265.9,238.5z"/>
			<path class="st10" d="M286.4,223.5l-2.9,8.4l-18.3,6.8l0.9,2.2c0,0,11.7-0.7,19.4-4c4.1-1.7,7.1-6.1,9.1-9.7
				c1.5-2.8-0.3-6.3-3.5-6.7l0,0C289.1,220.2,287.1,221.5,286.4,223.5z"/>
			<path class="st15" d="M284.5,229l8.1,1.8c0,0,2.4-1.1,3-5c-3.9-3.9-8.6-2.8-9.2-2.8C283.2,226,284.5,229,284.5,229z"/>
			<path class="st12" d="M278.7,207.3c0,0,4.4,1.5,6.7-4.9c1.6,4.9,5.9,5.9,6.9,4.9C293.2,206.3,284.3,193.7,278.7,207.3z"/>
		</g>
		<g>
			<g>
				<path class="st11" d="M173.1,238.6c0-15-7.5-12.8-15-12.8c-7.5,0-7.2,12.8-7.2,12.8l-1.5,25.5h24.4L173.1,238.6z"/>
				<polygon class="st7" points="149.5,264.2 146,325.8 151.6,325.8 161.9,274.2 168,325.8 173.6,325.8 173.9,264.2 				"/>
			</g>
			<path class="st12" d="M173.9,325.8c0,0,3.2-0.4,6.4,2.8c-9.2,0-12.2,0-12.2,0l-0.2-2.8H173.9z"/>
			<path class="st12" d="M145.6,325.8c0,0-3.2-0.4-6.4,2.8c9.2,0,12.2,0,12.2,0l0.2-2.8H145.6z"/>
			<g>
				<path class="st10" d="M156.8,215.3c0,0-1.7-0.2-1.7,1.6c0,1.8,2.2,1.9,2.2,1.9L156.8,215.3z"/>
				<path class="st10" d="M166.9,215.3c0,0,1.7-0.2,1.7,1.6c0,1.8-2.2,1.9-2.2,1.9L166.9,215.3z"/>
			</g>
			<path class="st11" d="M161.9,229.8L161.9,229.8c-1.7,0-3.2-1.4-3.2-3.2v-5.3h6.3v5.3C165,228.4,163.6,229.8,161.9,229.8z"/>
			<path class="st10" d="M163.4,223.7h-3.1c-2,0-3.6-1.6-3.6-3.6v-7.1c0-2,1.6-3.6,3.6-3.6h3.1c2,0,3.6,1.6,3.6,3.6v7.1
				C167,222,165.4,223.7,163.4,223.7z"/>
			<path class="st9" d="M163.6,154.9l5.2,10.2c0.3,0.6,0.9,1.1,1.7,1.2l11.3,1.5c1.8,0.2,2.5,2.4,1.3,3.7l-8.1,8.1
				c-0.5,0.5-0.7,1.2-0.6,1.9l2.1,11.2c0.3,1.8-1.5,3.2-3.1,2.3l-10.2-5.2c-0.6-0.3-1.4-0.3-2,0l-10,5.4c-1.6,0.9-3.5-0.5-3.2-2.3
				l1.8-11.3c0.1-0.7-0.1-1.4-0.6-1.9l-8.3-7.9c-1.3-1.2-0.6-3.5,1.2-3.7l11.3-1.8c0.7-0.1,1.3-0.6,1.6-1.2l4.9-10.3
				C160.5,153.3,162.8,153.3,163.6,154.9z"/>
			<path class="st10" d="M149.4,197.7c0,0,0.9-4.7,0.1-5.1c-0.6-0.4-0.9,2.6-0.9,2.6s-0.6-2.7-0.7-4.1c-0.1-1.4-1.8-1.2-2.2,1.5
				c-0.4,2.6,1.5,5.1,1.5,5.1L149.4,197.7z"/>
			<g>
			</g>
			<path class="st10" d="M158.1,225.8l-8.6-7.9l0-20.9h-2.4c0,0-4.1,11.5-4.1,20.1c0,8.6,10.2,17.6,10.2,17.6L158.1,225.8z"/>
			<path class="st10" d="M174.3,197.7c0,0-0.9-4.7-0.1-5.1c0.6-0.4,0.9,2.6,0.9,2.6s0.6-2.7,0.7-4.1c0.1-1.4,1.8-1.2,2.2,1.5
				c0.4,2.6-1.5,5.1-1.5,5.1L174.3,197.7z"/>
			<path class="st10" d="M165.5,225.8l9.2-8.8l-0.5-20.1h2.4c0,0,4.1,11.5,4.1,20.1c0,8.6-10.2,17.6-10.2,17.6L165.5,225.8z"/>
			<path class="st12" d="M177.6,226.5c-2.7-5.1-6.6-5.6-6.6-5.6l-5.9,4.9c0,0.7-0.1,1.3-0.4,1.8c-1.1,2.3-4.5,2.3-5.6,0
				c-0.2-0.5-0.4-1.1-0.4-1.8l-5.9-4.9c0,0-3.8,0.5-6.6,5.6c2,4.7,4.3,7.6,4.3,7.6l-2,33.6c9.6,1.9,17,1.9,26.7,0l-2-33.6
				C173.3,234.1,175.6,231.2,177.6,226.5z"/>
			<path class="st12" d="M156.9,216c0,0-1-0.7-0.7-4.1c0.3-3.4,2.8-6.4,8.2-4.2c3.3,1.3,4.8-0.8,4.8-0.8s0.9,2-0.7,4.9
				c-1.2,1.2-0.6,3-1.6,4c0-3.6-3.1-5.4-5.3-5.4C159.5,210.4,156.9,212.6,156.9,216z"/>
			<path class="st12" d="M157.3,211.4c0,0,5.5,2.8,10.2,0C163.6,206.9,158.2,208,157.3,211.4z"/>
		</g>
		<g>
			<path class="st18" d="M295.9,68.7c0,0,8.4-22.3,17.3-22.4c8.9-0.1,34.3,15.1,34.3,15.1s-2.9,9.7-12.5,9.3
				c-10-0.4-22.3-16.8-22.3-16.8L300,68.7L295.9,68.7z"/>
			<path class="st7" d="M305.3,101.3c0,0,9.2-26.7,16.3-32c7.1-5.3,32.7-11.3,32.7-11.3s1.9,10.7-5.2,15.1
				c-8.5,5.2-24.9,5.2-24.9,5.2l-15,23.6L305.3,101.3z"/>
			<g>
				<path class="st11" d="M329.5,47.2c0,0,4.8-24.4,9.7-23.1c4.9,1.3-0.2,22.7-6,27.4c-8.3,1.5-9-2.1-9-2.1"/>
				<path class="st19" d="M337.3,24.5c-3.2,3.1-4.6,7.6-3.9,12c0.3,1.9,0.9,4.3,1.9,6.9c2.2,5.9-0.7,10.9-0.7,10.9
					c5,4.5,11.9,7.2,20.1,7.1c0,0,3-20.6-1.8-30.7C348.9,22.5,343,19,337.3,24.5z"/>
				<path class="st10" d="M327.3,50.3l14.3-3.7c0,0-1.7-23.4,3.4-23.5c5.1-0.1,4.7,21.3,0.4,27.4c-2.5,3.6-18.8,1.7-18.8,1.7
					L327.3,50.3z"/>
				<path class="st11" d="M338.1,26.9l2.1-0.5c2.4-0.6,3.9-3.1,3.3-5.5l-1-4.2l-6.5,1.6L338.1,26.9z"/>
				<path class="st10" d="M338.8,6.6c-3,0-5.4,2.4-5.4,5.4v3c0,3,0.8,6.2,3.8,6.2c3,0,7-3.2,7-6.2v-3C344.3,9,341.8,6.6,338.8,6.6z"
					/>
			</g>
			<path class="st12" d="M326,51.3l-2.5,0.6c-0.5,0.1-1.2-0.2-1.5-0.7l-3.1-5.3c-0.3-0.5-0.1-1,0.4-1.1l2.5-0.6
				c0.5-0.1,1.2,0.2,1.5,0.7l3.1,5.3C326.7,50.7,326.5,51.1,326,51.3z"/>
			<path class="st12" d="M304.4,101.2c0,0-2.6-0.7-5.7,1.5c7.6,1.2,10.1,1.5,10.1,1.5l0.5-2.3L304.4,101.2z"/>
			<path class="st12" d="M295,68.7c0,0-2.7-0.3-5.3,2.4h10.2l0.1-2.4L295,68.7z"/>
			<path class="st10" d="M327.4,50.4c0,0-3.4-1.8-3.9-1.4c-0.4,0.4,1.7,1.4,1.7,1.4s-2.2-0.2-3.3-0.5c-1.1-0.2-1.4,1.1,0.6,2.1
				c1.9,1,4.3,0.2,4.3,0.2L327.4,50.4z"/>
			<path class="st9" d="M335.2,7.1c-1.3,0.9-2.5,2.5-1.9,4.9c4.3,0.4,7.7-1.2,7.7-1.2s2.7,2.8,2.4,6.8c3.1-3.1,2.2-9.2-2.3-11.1
				C339.1,5.7,336.9,5.9,335.2,7.1z"/>
			<path class="st10" d="M342.8,14.9c0,0,0-1.2,1.3-1.2c1.3,0,1,3.6-1,3.4"/>
		</g>
		<g>
			<g>
				<path class="st11" d="M204.7,241c0-14.6,8-12.4,15.3-12.4c7.3,0,7,12.4,7,12.4l1.4,24.9h-23.7V241z"/>
				<polygon class="st12" points="228.4,265.9 227.9,325.9 222.4,325.9 216.3,275.7 212.4,325.9 207,325.9 204.7,265.9 				"/>
			</g>
			<path class="st7" d="M206.6,325.9c0,0-3.1-0.4-6.2,2.7c9,0,11.8,0,11.8,0l0.2-2.7H206.6z"/>
			<path class="st7" d="M228.2,325.9c0,0,3.1-0.4,6.2,2.7c-9,0-11.8,0-11.8,0l-0.2-2.7H228.2z"/>
			<g>
				<path class="st10" d="M221.3,218.4c0,0,1.6-0.2,1.6,1.5c0,1.7-2.1,1.9-2.1,1.9L221.3,218.4z"/>
				<path class="st10" d="M211.5,218.4c0,0-1.6-0.2-1.6,1.5c0,1.7,2.1,1.9,2.1,1.9L211.5,218.4z"/>
			</g>
			<path class="st11" d="M216.4,232.4L216.4,232.4c1.7,0,3.1-1.4,3.1-3.1v-5.1h-6.1v5.1C213.3,231.1,214.7,232.4,216.4,232.4z"/>
			<path class="st10" d="M216.4,226.5L216.4,226.5c2.8,0,5-2.3,5-5v-3.9c0-2.8-2.3-5-5-5l0,0c-2.8,0-5,2.3-5,5v3.9
				C211.4,224.2,213.6,226.5,216.4,226.5z"/>
			<path class="st9" d="M215,159.9l-5.2,10.2c-0.3,0.6-0.9,1.1-1.7,1.2l-11.3,1.5c-1.8,0.2-2.5,2.4-1.3,3.7l8.1,8.1
				c0.5,0.5,0.7,1.2,0.6,1.9l-2.1,11.2c-0.3,1.8,1.5,3.2,3.1,2.3l10.2-5.2c0.6-0.3,1.4-0.3,2,0l10,5.4c1.6,0.9,3.5-0.5,3.2-2.3
				l-1.8-11.3c-0.1-0.7,0.1-1.4,0.6-1.9l8.3-7.9c1.3-1.2,0.6-3.5-1.2-3.7l-11.3-1.8c-0.7-0.1-1.3-0.6-1.6-1.2l-4.9-10.3
				C218.2,158.3,215.8,158.3,215,159.9z"/>
			<path class="st10" d="M228.5,201.2c0,0-0.8-4.6-0.1-5c0.6-0.3,0.9,2.5,0.9,2.5s0.6-2.6,0.7-4c0.1-1.3,1.8-1.1,2.2,1.4
				c0.4,2.6-1.4,5-1.4,5L228.5,201.2z"/>
			<path class="st7" d="M211.6,219.3c0,0,1.6,3,4.9,3c3.2,0,4.7-3,4.7-3h0.4c0,0,0.9,7.7-5,7.7c-5.9,0-5.3-7.7-5.3-7.7H211.6z"/>
			<path class="st10" d="M220,228.6l8.4-7.7l0-20.4h2.4c0,0,4,11.2,4,19.6c0,8.4-9.9,17.1-9.9,17.1L220,228.6z"/>
			<path class="st10" d="M204.3,201.2c0,0,0.8-4.6,0.1-5c-0.6-0.3-0.9,2.5-0.9,2.5s-0.6-2.6-0.7-4c-0.1-1.3-1.8-1.1-2.2,1.4
				c-0.4,2.6,1.4,5,1.4,5L204.3,201.2z"/>
			<path class="st10" d="M212.8,228.6l-8.9-8.5l0.5-19.6H202c0,0-4,11.2-4,19.6c0,8.4,9.9,17.1,9.9,17.1L212.8,228.6z"/>
			<path class="st13" d="M204.1,214.3h-5.5c0,0-4.7,12.2,6.1,20.9l-2,33.8c8.7,1.6,13.7-1.4,13.7-1.4s8.2,3.9,14.8,1.9l-3.7-33.9
				c0,0,9.9-8.9,6.8-21.4c-4.1,0-5.9,0-5.9,0s1.1,8.8-9,13.2l-3.1,5.7l-3.1-5.5C213.3,227.7,205.3,222.4,204.1,214.3z"/>
			<polygon class="st20" points="198,213.5 204.4,213.5 204.7,216.8 197.5,217.3 			"/>
			<polygon class="st20" points="234.7,213.5 228.1,213.5 228.1,216.8 235.2,217.3 			"/>
			<path class="st7" d="M211.4,220.1c0,0,0.8-0.9,0.8-2.8c3,0,5.4-0.8,6.3-3.6c1.1,2.8,2.1,3.6,2.1,3.6s0,1.7,0.8,2.5
				c0.9-3.1,0.2-8.2-5.2-8.2C210.3,211.6,210.7,217.4,211.4,220.1z"/>
			<line class="st16" x1="216.4" y1="232.4" x2="216.4" y2="267.7"/>
			<line class="st16" x1="205.4" y1="261.1" x2="209.8" y2="256.7"/>
			<line class="st16" x1="227.4" y1="261.1" x2="223.1" y2="256.7"/>
			<polygon class="st20" points="213.3,226.9 212.2,226.9 213.9,234.7 216.4,233.2 218.9,234.7 220.6,227 219.5,226.9 216.4,231.8 
							"/>
		</g>
	</g>
</g>
</svg>
